<svg xmlns="http://www.w3.org/2000/svg" width="28" height="28" viewBox="0 0 28 28"><defs><style>.a{fill:none;}.b,.c{fill:#fff;}.b{fill-rule:evenodd;}</style></defs><rect class="a" width="28" height="28"/><rect class="a" width="28" height="28"/><g transform="translate(1.167 4.667)"><g transform="translate(18.282 10.652)"><path class="b" d="M16.67,13.13a5.426,5.426,0,0,1,2.718,4.515v3.5h3.5a1.17,1.17,0,0,0,1.167-1.167V17.645C24.055,15.1,19.89,13.6,16.67,13.13Z" transform="translate(-16.67 -13.13)"/></g><g transform="translate(4.667)"><circle class="c" cx="4.667" cy="4.667" r="4.667"/></g><g transform="translate(14.782)"><path class="b" d="M15.222,13.333a4.667,4.667,0,0,0,0-9.333,4.875,4.875,0,0,0-1.552.28,6.977,6.977,0,0,1,0,8.773A4.875,4.875,0,0,0,15.222,13.333Z" transform="translate(-13.67 -4)"/></g><g transform="translate(0 10.5)"><path class="b" d="M10.333,13C7.218,13,1,14.563,1,17.667V20a1.17,1.17,0,0,0,1.167,1.167H18.5A1.17,1.17,0,0,0,19.667,20V17.667C19.667,14.563,13.448,13,10.333,13Z" transform="translate(-1 -13)"/></g></g></svg>